<svg xmlns="http://www.w3.org/2000/svg" viewBox="0 0 200 200" width="200" height="200">
  <!-- Background Circle -->
  <circle cx="100" cy="100" r="95" fill="#0A1929" stroke="#FFD700" stroke-width="3"/>
  
  <!-- Shield Shape -->
  <path d="M100 40 L140 60 L140 100 Q140 130 100 150 Q60 130 60 100 L60 60 Z" fill="#FFD700" opacity="0.9"/>
  
  <!-- Book -->
  <rect x="80" y="75" width="40" height="45" fill="#0A1929" rx="2"/>
  <line x1="100" y1="75" x2="100" y2="120" stroke="#FFD700" stroke-width="2"/>
  <line x1="80" y1="85" x2="120" y2="85" stroke="#FFD700" stroke-width="1" opacity="0.5"/>
  <line x1="80" y1="95" x2="120" y2="95" stroke="#FFD700" stroke-width="1" opacity="0.5"/>
  <line x1="80" y1="105" x2="120" y2="105" stroke="#FFD700" stroke-width="1" opacity="0.5"/>
  
  <!-- Star at top -->
  <polygon points="100,50 103,58 111,58 105,63 107,71 100,66 93,71 95,63 89,58 97,58" fill="#FFD700"/>
  
  <!-- Bottom Banner -->
  <path d="M60 140 L140 140 L135 150 L65 150 Z" fill="#FFD700"/>
  <text x="100" y="147" font-family="Arial, sans-serif" font-size="8" font-weight="bold" fill="#0A1929" text-anchor="middle">BCOE</text>
</svg>
